<?xml version="1.0" encoding="UTF-8" standalone="no"?>
<!DOCTYPE svg PUBLIC "-//W3C//DTD SVG 1.0//EN" "http://www.w3.org/TR/2001/PR-SVG-20010719/DTD/svg10.dtd">
<svg width="46cm" height="33cm" viewBox="63 93 918 641" xmlns="http://www.w3.org/2000/svg" xmlns:xlink="http://www.w3.org/1999/xlink">
  <g>
    <rect style="fill: #ffffff" x="244" y="226" width="58.8" height="36"/>
    <rect style="fill: none; fill-opacity:0; stroke-width: 2; stroke: #000000" x="244" y="226" width="58.8" height="36"/>
    <text font-size="12.7998" style="fill: #000000;text-anchor:middle;font-family:monospace;font-style:normal;font-weight:normal" x="273.4" y="248">User</text>
  </g>
  <g>
    <ellipse style="fill: #ffffff" cx="342.25" cy="112" rx="39.25" ry="18"/>
    <ellipse style="fill: none; fill-opacity:0; stroke-width: 2; stroke: #000000" cx="342.25" cy="112" rx="39.25" ry="18"/>
    <text font-size="12.7998" style="fill: #000000;text-anchor:middle;font-family:monospace;font-style:normal;font-weight:normal" x="342.25" y="116">uname</text>
    <line style="fill: none; fill-opacity:0; stroke-width: 2; stroke: #000000" x1="323" y1="120" x2="361.5" y2="120"/>
  </g>
  <g>
    <ellipse style="fill: #ffffff" cx="122.45" cy="347" rx="31.55" ry="18"/>
    <ellipse style="fill: none; fill-opacity:0; stroke-width: 2; stroke: #000000" cx="122.45" cy="347" rx="31.55" ry="18"/>
    <text font-size="12.7998" style="fill: #000000;text-anchor:middle;font-family:monospace;font-style:normal;font-weight:normal" x="122.45" y="351">mid</text>
    <line style="fill: none; fill-opacity:0; stroke-width: 2; stroke: #000000" x1="110.9" y1="355" x2="134" y2="355"/>
  </g>
  <g>
    <ellipse style="fill: #ffffff" cx="940.05" cy="160" rx="39.25" ry="18"/>
    <ellipse style="fill: none; fill-opacity:0; stroke-width: 2; stroke: #000000" cx="940.05" cy="160" rx="39.25" ry="18"/>
    <text font-size="12.7998" style="fill: #000000;text-anchor:middle;font-family:monospace;font-style:normal;font-weight:normal" x="940.05" y="164">mname</text>
  </g>
  <line style="fill: none; fill-opacity:0; stroke-width: 2; stroke: #000000" x1="143.456" y1="332.667" x2="245.613" y2="262.96"/>
  <line style="fill: none; fill-opacity:0; stroke-width: 2; stroke: #000000" x1="332.66" y1="130.385" x2="283.301" y2="225.019"/>
  <g>
    <rect style="fill: #ffffff" x="750" y="223" width="81.9" height="36"/>
    <rect style="fill: none; fill-opacity:0; stroke-width: 2; stroke: #000000" x="750" y="223" width="81.9" height="36"/>
    <text font-size="12.7998" style="fill: #000000;text-anchor:middle;font-family:monospace;font-style:normal;font-weight:normal" x="790.95" y="245">Meeting</text>
  </g>
  <g>
    <ellipse style="fill: #ffffff" cx="698.15" cy="120" rx="39.25" ry="18"/>
    <ellipse style="fill: none; fill-opacity:0; stroke-width: 2; stroke: #000000" cx="698.15" cy="120" rx="39.25" ry="18"/>
    <text font-size="12.7998" style="fill: #000000;text-anchor:middle;font-family:monospace;font-style:normal;font-weight:normal" x="698.15" y="124">owner</text>
  </g>
  <g>
    <ellipse style="fill: #ffffff" cx="883.35" cy="331" rx="31.55" ry="18"/>
    <ellipse style="fill: none; fill-opacity:0; stroke-width: 2; stroke: #000000" cx="883.35" cy="331" rx="31.55" ry="18"/>
    <text font-size="12.7998" style="fill: #000000;text-anchor:middle;font-family:monospace;font-style:normal;font-weight:normal" x="883.35" y="335">mid</text>
    <line style="fill: none; fill-opacity:0; stroke-width: 2; stroke: #000000" x1="871.8" y1="339" x2="894.9" y2="339"/>
  </g>
  <g>
    <ellipse style="fill: #ffffff" cx="107.1" cy="157" rx="43.1" ry="18"/>
    <ellipse style="fill: none; fill-opacity:0; stroke-width: 2; stroke: #000000" cx="107.1" cy="157" rx="43.1" ry="18"/>
    <text font-size="12.7998" style="fill: #000000;text-anchor:middle;font-family:monospace;font-style:normal;font-weight:normal" x="107.1" y="161">secret</text>
  </g>
  <line style="fill: none; fill-opacity:0; stroke-width: 2; stroke: #000000" x1="134.881" y1="171.534" x2="243.01" y2="228.102"/>
  <line style="fill: none; fill-opacity:0; stroke-width: 2; stroke: #000000" x1="711.766" y1="137.754" x2="776.376" y2="221.998"/>
  <line style="fill: none; fill-opacity:0; stroke-width: 2; stroke: #000000" x1="914.132" y1="174.08" x2="825.914" y2="222.006"/>
  <line style="fill: none; fill-opacity:0; stroke-width: 2; stroke: #000000" x1="866.69" y1="314.773" x2="810.452" y2="259.995"/>
  <g>
    <rect style="fill: #ffffff" x="493" y="573" width="89.6" height="36"/>
    <rect style="fill: none; fill-opacity:0; stroke-width: 2; stroke: #000000" x="493" y="573" width="89.6" height="36"/>
    <text font-size="12.7998" style="fill: #000000;text-anchor:middle;font-family:monospace;font-style:normal;font-weight:normal" x="537.8" y="595">Zeitraum</text>
  </g>
  <g>
    <ellipse style="fill: #ffffff" cx="355.55" cy="594" rx="31.55" ry="18"/>
    <ellipse style="fill: none; fill-opacity:0; stroke-width: 2; stroke: #000000" cx="355.55" cy="594" rx="31.55" ry="18"/>
    <text font-size="12.7998" style="fill: #000000;text-anchor:middle;font-family:monospace;font-style:normal;font-weight:normal" x="355.55" y="598">zid</text>
    <line style="fill: none; fill-opacity:0; stroke-width: 2; stroke: #000000" x1="344" y1="602" x2="367.1" y2="602"/>
  </g>
  <g>
    <ellipse style="fill: #ffffff" cx="413.25" cy="715" rx="39.25" ry="18"/>
    <ellipse style="fill: none; fill-opacity:0; stroke-width: 2; stroke: #000000" cx="413.25" cy="715" rx="39.25" ry="18"/>
    <text font-size="12.7998" style="fill: #000000;text-anchor:middle;font-family:monospace;font-style:normal;font-weight:normal" x="413.25" y="719">start</text>
  </g>
  <g>
    <ellipse style="fill: #ffffff" cx="737.55" cy="592" rx="31.55" ry="18"/>
    <ellipse style="fill: none; fill-opacity:0; stroke-width: 2; stroke: #000000" cx="737.55" cy="592" rx="31.55" ry="18"/>
    <text font-size="12.7998" style="fill: #000000;text-anchor:middle;font-family:monospace;font-style:normal;font-weight:normal" x="737.55" y="596">mid</text>
  </g>
  <g>
    <ellipse style="fill: #ffffff" cx="647.4" cy="713" rx="35.4" ry="18"/>
    <ellipse style="fill: none; fill-opacity:0; stroke-width: 2; stroke: #000000" cx="647.4" cy="713" rx="35.4" ry="18"/>
    <text font-size="12.7998" style="fill: #000000;text-anchor:middle;font-family:monospace;font-style:normal;font-weight:normal" x="647.4" y="717">ende</text>
  </g>
  <line style="fill: none; fill-opacity:0; stroke-width: 2; stroke: #000000" x1="632.028" y1="695.888" x2="554.845" y2="609.973"/>
  <line style="fill: none; fill-opacity:0; stroke-width: 2; stroke: #000000" x1="705.01" y1="591.837" x2="583.604" y2="591.229"/>
  <line style="fill: none; fill-opacity:0; stroke-width: 2; stroke: #000000" x1="430.377" y1="697.948" x2="518.765" y2="609.951"/>
  <line style="fill: none; fill-opacity:0; stroke-width: 2; stroke: #000000" x1="388.087" y1="593.464" x2="492.004" y2="591.754"/>
  <g>
    <polygon style="fill: #ffffff" points="607,412.72 673.2,373 739.4,412.72 673.2,452.44 "/>
    <polygon style="fill: none; fill-opacity:0; stroke-width: 2; stroke: #000000" points="607,412.72 673.2,373 739.4,412.72 673.2,452.44 "/>
    <text font-size="12.7998" style="fill: #000000;text-anchor:end;font-family:monospace;font-style:normal;font-weight:normal" x="601" y="406.72"></text>
    <text font-size="12.7998" style="fill: #000000;text-anchor:start;font-family:monospace;font-style:normal;font-weight:normal" x="745.4" y="406.72"></text>
    <text font-size="12.7998" style="fill: #000000;text-anchor:middle;font-family:monospace;font-style:normal;font-weight:normal" x="673.2" y="416.72">ist Teil von</text>
  </g>
  <line style="fill: none; fill-opacity:0; stroke-width: 2; stroke: #000000" x1="642.391" y1="453.286" x2="552.233" y2="571.996"/>
  <line style="fill: none; fill-opacity:0; stroke-width: 2; stroke: #000000" x1="701.121" y1="372.001" x2="777.92" y2="260.002"/>
  <g>
    <polygon style="fill: #ffffff" points="320,398.1 378.5,363 437,398.1 378.5,433.2 "/>
    <polygon style="fill: none; fill-opacity:0; stroke-width: 2; stroke: #000000" points="320,398.1 378.5,363 437,398.1 378.5,433.2 "/>
    <text font-size="12.7998" style="fill: #000000;text-anchor:end;font-family:monospace;font-style:normal;font-weight:normal" x="314" y="392.1"></text>
    <text font-size="12.7998" style="fill: #000000;text-anchor:start;font-family:monospace;font-style:normal;font-weight:normal" x="443" y="392.1"></text>
    <text font-size="12.7998" style="fill: #000000;text-anchor:middle;font-family:monospace;font-style:normal;font-weight:normal" x="378.5" y="402.1">nimmt teil</text>
  </g>
  <g>
    <polygon style="fill: #ffffff" points="475,242.79 529.65,210 584.3,242.79 529.65,275.58 "/>
    <polygon style="fill: none; fill-opacity:0; stroke-width: 2; stroke: #000000" points="475,242.79 529.65,210 584.3,242.79 529.65,275.58 "/>
    <text font-size="12.7998" style="fill: #000000;text-anchor:end;font-family:monospace;font-style:normal;font-weight:normal" x="469" y="236.79"></text>
    <text font-size="12.7998" style="fill: #000000;text-anchor:start;font-family:monospace;font-style:normal;font-weight:normal" x="590.3" y="236.79"></text>
    <text font-size="12.7998" style="fill: #000000;text-anchor:middle;font-family:monospace;font-style:normal;font-weight:normal" x="529.65" y="246.79">gehört zu</text>
  </g>
  <line style="fill: none; fill-opacity:0; stroke-width: 2; stroke: #000000" x1="286.364" y1="263.009" x2="354.688" y2="363.187"/>
  <line style="fill: none; fill-opacity:0; stroke-width: 2; stroke: #000000" x1="408.315" y1="434.204" x2="522.117" y2="572.009"/>
  <line style="fill: none; fill-opacity:0; stroke-width: 2; stroke: #000000" x1="303.742" y1="243.857" x2="473.994" y2="243.053"/>
  <line style="fill: none; fill-opacity:0; stroke-width: 2; stroke: #000000" x1="585.294" y1="242.409" x2="748.998" y2="241.287"/>
  <text font-size="12.7998" style="fill: #000000;text-anchor:start;font-family:sans-serif;font-style:normal;font-weight:normal" x="673" y="229">
    <tspan x="673" y="229">[1;1]</tspan>
  </text>
  <text font-size="12.7998" style="fill: #000000;text-anchor:start;font-family:sans-serif;font-style:normal;font-weight:normal" x="351.541" y="228.233">
    <tspan x="351.541" y="228.233">[1;n]</tspan>
  </text>
  <text font-size="12.7998" style="fill: #000000;text-anchor:start;font-family:sans-serif;font-style:normal;font-weight:normal" x="494.541" y="500.233">
    <tspan x="494.541" y="500.233">[0;n]</tspan>
  </text>
  <text font-size="12.7998" style="fill: #000000;text-anchor:start;font-family:sans-serif;font-style:normal;font-weight:normal" x="331.541" y="316.233">
    <tspan x="331.541" y="316.233">[0;m]</tspan>
  </text>
  <text font-size="12.7998" style="fill: #000000;text-anchor:start;font-family:sans-serif;font-style:normal;font-weight:normal" x="747.541" y="341.233">
    <tspan x="747.541" y="341.233">[1;1]</tspan>
  </text>
  <text font-size="12.7998" style="fill: #000000;text-anchor:start;font-family:sans-serif;font-style:normal;font-weight:normal" x="618.541" y="540.233">
    <tspan x="618.541" y="540.233">[0;n]</tspan>
  </text>
</svg>
